<svg xmlns="http://www.w3.org/2000/svg" viewBox="0 0 1536 1024" role="img" aria-labelledby="title desc">
  <title id="title">Ilustração científica verde</title>
  <desc id="desc">Planta, microscópio, frasco e elementos de biologia em tons verdes.</desc>
  <defs>
    <linearGradient id="bg" x1="0" y1="0" x2="0" y2="1">
      <stop offset="0%" stop-color="#eef2d4"/>
      <stop offset="100%" stop-color="#dfe8c6"/>
    </linearGradient>
    <radialGradient id="glow" cx="50%" cy="35%" r="60%">
      <stop offset="0%" stop-color="#ffffff" stop-opacity="0.7"/>
      <stop offset="100%" stop-color="#ffffff" stop-opacity="0"/>
    </radialGradient>
    <linearGradient id="leaf" x1="0" y1="0" x2="1" y2="1">
      <stop offset="0%" stop-color="#9be33d"/>
      <stop offset="100%" stop-color="#2f7d1c"/>
    </linearGradient>
    <linearGradient id="glass" x1="0" y1="0" x2="0" y2="1">
      <stop offset="0%" stop-color="#ffffff" stop-opacity="0.8"/>
      <stop offset="100%" stop-color="#cfe8d0" stop-opacity="0.25"/>
    </linearGradient>
    <linearGradient id="microscope" x1="0" y1="0" x2="1" y2="1">
      <stop offset="0%" stop-color="#f8f3ec"/>
      <stop offset="100%" stop-color="#cfc7bb"/>
    </linearGradient>
  </defs>
  <rect width="1536" height="1024" fill="url(#bg)"/>
  <circle cx="770" cy="270" r="420" fill="url(#glow)"/>
  <g opacity="0.95">
    <ellipse cx="730" cy="560" rx="250" ry="330" fill="#c6d6a9" opacity="0.25"/>
    <g transform="translate(710 180)">
      <path d="M0 0 C-25 60 -25 115 0 180 C25 115 25 60 0 0Z" fill="#2f7d1c"/>
      <path d="M0 40 C-70 35 -120 70 -165 120 C-100 130 -55 110 0 80Z" fill="url(#leaf)"/>
      <path d="M0 40 C70 35 120 70 165 120 C100 130 55 110 0 80Z" fill="url(#leaf)"/>
      <path d="M0 160 C-90 165 -160 220 -205 280 C-130 290 -80 265 0 225Z" fill="url(#leaf)"/>
      <path d="M0 160 C90 165 160 220 205 280 C130 290 80 265 0 225Z" fill="url(#leaf)"/>
      <path d="M0 245 C-70 245 -125 280 -165 330 C-105 345 -55 330 0 300Z" fill="url(#leaf)"/>
      <path d="M0 245 C70 245 125 280 165 330 C105 345 55 330 0 300Z" fill="url(#leaf)"/>
      <rect x="-8" y="0" width="16" height="365" rx="8" fill="#255f17"/>
    </g>
    <g transform="translate(340 615)">
      <path d="M0 0 L70 -180 L210 -180 L260 0 Z" fill="url(#glass)" stroke="#ffffff" stroke-opacity="0.75" stroke-width="5"/>
      <ellipse cx="135" cy="0" rx="140" ry="32" fill="#7ad03a" opacity="0.35"/>
      <path d="M58 -145 L188 -145 L232 -18 L18 -18 Z" fill="#6fcf4d" opacity="0.45"/>
    </g>
    <g transform="translate(970 610)">
      <ellipse cx="180" cy="15" rx="130" ry="95" fill="url(#microscope)"/>
      <rect x="110" y="-160" width="120" height="165" rx="32" fill="#2a2a2a" transform="rotate(25 170 -80)"/>
      <rect x="60" y="-40" width="280" height="36" rx="8" fill="#1d1d1d"/>
      <rect x="115" y="-15" width="25" height="140" rx="8" fill="#4e4a45"/>
      <rect x="155" y="-30" width="26" height="170" rx="10" fill="#4e4a45"/>
      <circle cx="302" cy="-25" r="38" fill="#2a2a2a"/>
      <circle cx="302" cy="-25" r="18" fill="#6b645d"/>
    </g>
  </g>
  <g opacity="0.55" fill="#ffffff">
    <circle cx="620" cy="140" r="9"/>
    <circle cx="860" cy="110" r="7"/>
    <circle cx="1120" cy="220" r="10"/>
    <circle cx="1240" cy="420" r="14"/>
    <circle cx="470" cy="350" r="12"/>
    <circle cx="1320" cy="170" r="8"/>
  </g>
</svg>
